<svg xmlns="http://www.w3.org/2000/svg" viewBox="0 0 512 512">
  <defs>
    <linearGradient id="bg" x1="0" y1="0" x2="1" y2="1">
      <stop offset="0%" stop-color="#3D261C"/>
      <stop offset="100%" stop-color="#2C1810"/>
    </linearGradient>
    <linearGradient id="bean" x1="0" y1="0" x2="0" y2="1">
      <stop offset="0%" stop-color="#D4A76A"/>
      <stop offset="100%" stop-color="#B87333"/>
    </linearGradient>
  </defs>
  <!-- Background -->
  <rect width="512" height="512" rx="112" fill="url(#bg)"/>
  <!-- Coffee bean left half -->
  <path d="M256 120c-60 0-110 30-130 75s-20 100 5 145c25 45 70 72 125 72s100-27 125-72c25-45 25-100 5-145s-70-75-130-75z" fill="url(#bean)" opacity="0.95"/>
  <!-- Bean center line -->
  <path d="M256 148c-15 40-15 85 0 125s0 85 0 125" fill="none" stroke="#2C1810" stroke-width="10" stroke-linecap="round" opacity="0.4"/>
  <!-- Steam lines -->
  <path d="M200 105c0-20 15-30 5-50" fill="none" stroke="#D4A76A" stroke-width="8" stroke-linecap="round" opacity="0.5"/>
  <path d="M256 90c0-20 15-35 5-55" fill="none" stroke="#D4A76A" stroke-width="8" stroke-linecap="round" opacity="0.6"/>
  <path d="M312 105c0-20 15-30 5-50" fill="none" stroke="#D4A76A" stroke-width="8" stroke-linecap="round" opacity="0.5"/>
</svg>
