<svg width="350" height="142" viewBox="0 0 350 142" fill="none" xmlns="http://www.w3.org/2000/svg">
<g clip-path="url(#clip0_2465_9797)">
<path d="M101.347 128.135C115.432 117.229 129.114 113.717 131.436 95.9494C133.758 78.1814 124.435 48.2891 113.631 34.067C109.912 29.1706 105.629 24.8857 100.88 21.2676L95.6375 28.6101C99.6427 31.6846 102.933 35.7742 106.08 39.9147C115.34 52.0984 123.989 79.4681 121.999 94.6924C120.009 109.917 107.624 111.165 95.5534 120.508C83.4831 129.855 68.531 133.893 53.4526 131.889C44.4199 130.687 35.9888 127.4 28.6894 122.338L23.1191 130.135C31.6807 136.114 41.5885 140 52.2073 141.414C69.8099 143.758 87.2611 139.04 101.347 128.135Z" fill="#C46625"></path>
<path d="M89.5788 112.388C99.3267 104.842 107.497 100.502 108.688 87.588C109.744 76.1304 104.632 57.3644 98.641 46.51C96.4659 42.569 93.4872 39.2821 90.05 36.4326L84.9383 43.5882C87.2649 45.6012 88.8383 48.4974 90.3234 51.1855C95.393 60.3626 100.088 77.1539 99.2089 86.6961C98.5568 93.7966 93.3736 97.3383 83.7856 104.766C70.7519 114.86 53.0903 115.06 40.1239 106.345L34.2676 114.542C40.3805 118.716 47.701 120.801 54.8615 121.752C66.7845 123.341 79.305 120.342 89.5788 112.388Z" fill="#C46625"></path>
<path d="M77.8701 96.5443C82.5022 92.9601 85.077 88.225 85.7543 82.0716C86.2886 77.1795 85.5355 72.092 84.8035 67.1701C84.4417 64.7367 84.1009 62.4351 83.9116 60.1928C83.6045 56.5492 81.8585 53.8271 79.3637 51.4404L73.6293 59.4709C73.9659 59.7469 74.4245 60.9572 74.475 61.5602C74.6895 64.1125 75.0219 66.1212 75.3879 68.597C76.852 78.4747 77.4747 84.7385 72.0727 88.9215C68.2695 91.8644 63.5575 93.1384 58.8076 92.5057C56.2791 92.1702 53.6412 91.6733 51.5251 90.3696L45.6855 98.5444C49.0681 100.761 53.4435 101.483 57.5623 102.031C64.8364 102.999 72.0433 101.05 77.8659 96.5443H77.8701Z" fill="#C46625"></path>
<path d="M21.29 102.085C12.0301 89.9015 8.0291 74.8089 10.0149 59.5889C12.0048 44.3646 19.746 30.8389 31.8162 21.492C43.8865 12.1451 58.8387 8.10653 73.917 10.111C83.8711 11.4359 93.0974 15.2919 100.881 21.2669L106.451 13.4658C97.4055 6.57348 86.7025 2.12297 75.1624 0.585682C57.5597 -1.75848 40.1085 2.95957 26.023 13.865C11.9333 24.7747 2.9006 40.5638 0.578259 58.3318C-1.74408 76.0999 2.93005 93.715 13.734 107.933C18.021 113.572 23.0696 118.405 28.6945 122.338L34.2648 114.541C29.3803 111.152 25.0007 106.973 21.2858 102.089L21.29 102.085Z" fill="#424242"></path>
<path d="M36.7632 90.1054C24.1965 73.5689 27.3014 49.7961 43.6839 37.1113C51.85 30.788 62.9989 27.8833 73.3611 29.2635C74.2614 29.3824 75.1575 29.5353 76.041 29.7221C81.5145 30.8645 86.2812 33.1746 90.0466 36.4318L95.6337 28.6095C90.7702 24.5794 84.7708 21.7341 77.9679 20.3115C71.287 18.9186 64.1096 18.9908 57.2057 20.5196C50.1082 22.0951 43.4273 25.1952 37.8865 29.4843C17.3389 45.3923 13.4473 75.2081 29.2072 95.9489C32.3541 100.089 36.0522 103.559 40.1205 106.336L45.6908 98.5393C42.3587 96.3013 39.3338 93.4815 36.7632 90.1012V90.1054Z" fill="#424242"></path>
<path d="M52.2376 78.1259C49.3221 74.2869 48.0599 69.5307 48.6868 64.7362C49.3137 59.9374 51.7538 55.678 55.557 52.7308C59.9619 49.3208 66.2852 47.3163 71.826 48.0553C73.1555 48.2336 75.3642 48.9768 76.4118 49.4694C77.7791 50.1107 78.6079 50.6797 79.3694 51.4568L84.9439 43.5878C83.6523 42.352 82.0956 41.3158 80.2866 40.5132C76.0079 38.6064 69.7351 37.893 63.8956 38.8273C58.237 39.7318 53.6764 42.0802 49.7638 45.1081C43.9453 49.6138 40.2094 56.1409 39.2502 63.4792C38.291 70.8216 40.222 78.0962 44.6858 83.9736C46.6211 86.5216 48.935 88.6746 51.5266 90.3733L57.1095 82.5594C55.2541 81.4128 53.6007 79.9222 52.2376 78.1302V78.1259Z" fill="#424242"></path>
<path d="M345.148 83.9272C342.38 83.9272 340.991 85.3243 339.607 88.1229C336.839 93.7157 331.298 99.3086 321.601 99.3086C310.519 99.3086 302.9 91.6179 302.9 81.8293V64.35C302.9 54.5615 310.519 46.8708 321.601 46.8708C330.604 46.8708 334.761 51.0665 338.223 56.6593C339.885 59.4579 340.996 60.855 343.764 60.855C346.532 60.855 348.611 58.7572 348.611 55.9629C348.611 53.865 347.916 52.4679 347.916 52.4679C345.144 46.1743 336.141 37.0864 321.597 37.0864C304.28 37.0864 291.814 49.6693 291.814 64.35V80.0839L291.789 80.0669L291.814 87.5368C291.814 95.2233 287.662 99.419 281.431 99.4232C275.2 99.4232 271.048 95.2275 271.048 87.5368V48.3443H285.226C287.994 48.3443 290.073 46.2465 290.073 43.4522C290.073 40.6579 287.994 38.56 285.226 38.56H271.048V25.2765C271.048 22.4821 268.97 19.6836 265.507 19.6836C262.045 19.6836 259.966 22.4821 259.966 25.2765V38.4751L257.299 38.4878L254.32 48.3486H259.962V87.5411C259.962 100.12 268.957 109.208 281.418 109.212C281.418 109.212 281.423 109.212 281.427 109.212C281.431 109.212 281.431 109.212 281.435 109.212C289.16 109.208 295.546 105.713 299.29 100.064C304.608 105.568 312.421 109.097 321.592 109.097C336.831 109.097 346.524 99.3086 349.296 92.3186C349.296 92.3186 349.991 90.9214 349.991 88.8236C349.991 86.0293 347.912 83.9314 345.144 83.9314L345.148 83.9272Z" fill="#424242"></path>
<path d="M245.642 38.5428C243.219 38.5428 241.123 40.267 240.274 42.8192L226.053 88.2713L212.086 42.8532C211.282 40.3689 209.372 38.6999 207.071 38.6023C206.734 38.5343 206.385 38.4961 206.019 38.4961H199.784C188.702 38.4961 183.856 46.8833 183.856 46.8833H183.162V45.4861C183.162 42.6918 181.083 39.8932 177.621 39.8932C174.158 39.8932 172.08 42.6918 172.08 45.4861V103.513C172.08 106.307 174.158 109.105 177.621 109.105C181.083 109.105 183.162 106.307 183.162 103.513V71.1657C183.162 61.3771 188.189 48.2847 198.4 48.2847H202.321L220.315 105.101C221.114 107.568 223.39 109.237 225.957 109.246H225.978C228.54 109.246 230.816 107.594 231.628 105.143L248.743 52.2086L252.878 38.5088L245.633 38.5428H245.642Z" fill="#424242"></path>
</g>
<defs>
<clipPath id="clip0_2465_9797">
<rect width="350" height="142" fill="white"></rect>
</clipPath>
</defs>
</svg>